<svg xmlns="http://www.w3.org/2000/svg" width="462" height="38" viewBox="0 0 462 38" fill="none"><path d="M339.291 22.1461C338.625 22.1509 337.98 22.3687 337.459 22.7648C336.937 23.1609 336.57 23.7124 336.414 24.3314C336.259 24.9505 336.325 25.6013 336.602 26.1802C336.879 26.7591 337.351 27.2326 337.943 27.5253V30.9066H340.417V27.6317C341.056 27.3816 341.584 26.9273 341.912 26.3465C342.239 25.7657 342.345 25.0943 342.213 24.447C342.08 23.7996 341.716 23.2163 341.183 22.7967C340.65 22.3771 339.982 22.1471 339.291 22.1461V22.1461Z" fill="black"></path><path d="M349.078 15.5372V10.4772C349.131 7.91392 348.119 5.43492 346.264 3.58262C344.409 1.73033 341.862 0.655579 339.18 0.593552C336.498 0.655579 333.951 1.73033 332.096 3.58262C330.241 5.43492 329.229 7.91392 329.282 10.4772V15.5372H325.571V35.6355C325.571 36.2626 325.831 36.864 326.295 37.3075C326.759 37.7509 327.389 38 328.045 38H350.315C350.971 38 351.601 37.7509 352.065 37.3075C352.529 36.864 352.789 36.2626 352.789 35.6355V15.5372H349.078ZM331.757 10.4772C331.703 8.54093 332.454 6.66322 333.845 5.25431C335.236 3.84541 337.154 3.01987 339.18 2.95806C341.206 3.01987 343.124 3.84541 344.515 5.25431C345.906 6.66322 346.657 8.54093 346.603 10.4772V15.5372H331.757V10.4772ZM328.045 35.6355V17.9017H350.315V35.6355H328.045Z" fill="black"></path><path d="M54.758 18.6897C56.5374 18.6897 58.0538 18.0553 59.0595 16.8793L57.7598 15.6415C56.9707 16.508 55.9959 16.9257 54.8663 16.9257C52.6227 16.9257 50.9981 15.3475 50.9981 13.1194C50.9981 10.8912 52.6227 9.313 54.8663 9.313C55.9959 9.313 56.9707 9.73077 57.7598 10.5818L59.0595 9.35942C58.0538 8.18347 56.5374 7.54907 54.7735 7.54907C51.4468 7.54907 48.9711 9.8855 48.9711 13.1194C48.9711 16.3532 51.4468 18.6897 54.758 18.6897Z" fill="black"></path><path d="M64.2125 18.6432C66.781 18.6432 68.6223 16.8793 68.6223 14.4036C68.6223 11.9279 66.781 10.1795 64.2125 10.1795C61.6749 10.1795 59.8182 11.9279 59.8182 14.4036C59.8182 16.8793 61.6749 18.6432 64.2125 18.6432ZM64.2125 16.9876C62.8199 16.9876 61.7678 15.9819 61.7678 14.4036C61.7678 12.8254 62.8199 11.8196 64.2125 11.8196C65.6206 11.8196 66.6727 12.8254 66.6727 14.4036C66.6727 15.9819 65.6206 16.9876 64.2125 16.9876Z" fill="black"></path><path d="M80.9007 10.1795C79.5855 10.1795 78.4714 10.7056 77.8061 11.5566C77.2336 10.6282 76.2278 10.1795 75.0209 10.1795C73.8914 10.1795 72.9321 10.5818 72.3131 11.3245V10.2723H70.4718V18.5349H72.406V14.3417C72.406 12.7016 73.2725 11.866 74.5567 11.866C75.7327 11.866 76.4135 12.5778 76.4135 14.0477V18.5349H78.3476V14.3417C78.3476 12.7016 79.2296 11.866 80.4984 11.866C81.6743 11.866 82.3551 12.5778 82.3551 14.0477V18.5349H84.2893V13.8002C84.2893 11.309 82.8967 10.1795 80.9007 10.1795Z" fill="black"></path><path d="M91.3409 10.1795C90.2113 10.1795 89.252 10.5663 88.6021 11.3554V10.2723H86.7608V21.5367H88.695V17.5292C89.3603 18.2874 90.2887 18.6432 91.3409 18.6432C93.7546 18.6432 95.534 16.9721 95.534 14.4036C95.534 11.8506 93.7546 10.1795 91.3409 10.1795ZM91.1242 16.9876C89.7317 16.9876 88.664 15.9819 88.664 14.4036C88.664 12.8254 89.7317 11.8196 91.1242 11.8196C92.5168 11.8196 93.569 12.8254 93.569 14.4036C93.569 15.9819 92.5168 16.9876 91.1242 16.9876Z" fill="black"></path><path d="M99.2096 11.4792V10.2723H97.3683V18.5349H99.3025V14.5274C99.3025 12.8408 100.231 11.9744 101.701 11.9744C101.84 11.9744 101.979 11.9898 102.149 12.0208V10.1795C100.772 10.1795 99.7666 10.6127 99.2096 11.4792Z" fill="black"></path><path d="M106.901 10.1795C105.571 10.1795 104.286 10.5199 103.404 11.2007L104.163 12.6088C104.782 12.0981 105.741 11.7887 106.669 11.7887C108.046 11.7887 108.727 12.454 108.727 13.5836V13.7073H106.592C104.085 13.7073 103.157 14.7904 103.157 16.1675C103.157 17.6065 104.348 18.6432 106.236 18.6432C107.474 18.6432 108.371 18.2409 108.836 17.5292V18.5349H110.661V13.6919C110.661 11.309 109.284 10.1795 106.901 10.1795ZM106.638 17.2352C105.648 17.2352 105.06 16.7865 105.06 16.0902C105.06 15.4867 105.416 14.9916 106.731 14.9916H108.727V15.9509C108.402 16.8019 107.582 17.2352 106.638 17.2352Z" fill="black"></path><path d="M53.1024 33.3692C56.0732 33.3692 57.4813 31.8838 57.4813 30.1508C57.4813 26.1742 51.06 27.6751 51.06 25.3696C51.06 24.5496 51.7408 23.8997 53.4119 23.8997C54.3557 23.8997 55.4234 24.1782 56.3982 24.7507L57.0326 23.1879C56.0887 22.569 54.7271 22.2286 53.4273 22.2286C50.4565 22.2286 49.0639 23.714 49.0639 25.4625C49.0639 29.4855 55.5007 27.9536 55.5007 30.2901C55.5007 31.0947 54.789 31.6981 53.1024 31.6981C51.7717 31.6981 50.3946 31.203 49.5281 30.5067L48.8318 32.0695C49.7293 32.8431 51.4158 33.3692 53.1024 33.3692Z" fill="black"></path><path d="M67.0576 29.1296C67.0576 26.5456 65.2937 24.859 62.8799 24.859C60.4197 24.859 58.6094 26.623 58.6094 29.0832C58.6094 31.5434 60.4042 33.3228 63.1739 33.3228C64.5974 33.3228 65.7579 32.8586 66.5006 31.9766L65.4639 30.7852C64.8759 31.3886 64.1487 31.6826 63.2203 31.6826C61.7813 31.6826 60.7756 30.909 60.5435 29.7021H67.0267C67.0422 29.5164 67.0576 29.2843 67.0576 29.1296ZM62.8799 26.4063C64.1487 26.4063 65.0616 27.2264 65.2163 28.4178H60.528C60.7137 27.2109 61.6266 26.4063 62.8799 26.4063Z" fill="black"></path><path d="M75.2749 24.9519V26.0504C74.5941 25.2304 73.5729 24.859 72.4124 24.859C70.045 24.859 68.2347 26.4373 68.2347 28.8356C68.2347 31.2339 70.045 32.8431 72.4124 32.8431C73.5264 32.8431 74.5012 32.4872 75.1821 31.7445V32.1778C75.1821 33.8489 74.3775 34.6844 72.5516 34.6844C71.4066 34.6844 70.2307 34.2976 69.5035 33.6941L68.637 35.1486C69.5808 35.9222 71.1126 36.3245 72.6599 36.3245C75.5534 36.3245 77.1162 34.9629 77.1162 31.9611V24.9519H75.2749ZM72.7064 31.203C71.2364 31.203 70.1843 30.2436 70.1843 28.8356C70.1843 27.443 71.2364 26.4992 72.7064 26.4992C74.1608 26.4992 75.213 27.443 75.213 28.8356C75.213 30.2436 74.1608 31.203 72.7064 31.203Z" fill="black"></path><path d="M85.7244 24.9519V29.1296C85.7244 30.7852 84.8115 31.6207 83.4653 31.6207C82.243 31.6207 81.5312 30.909 81.5312 29.4081V24.9519H79.5971V29.6711C79.5971 32.1623 81.0361 33.3228 83.1559 33.3228C84.2235 33.3228 85.1983 32.9205 85.8172 32.1623V33.2145H87.6585V24.9519H85.7244Z" fill="black"></path><path d="M92.0322 26.1588V24.9519H90.1909V33.2145H92.125V29.2069C92.125 27.5204 93.0534 26.6539 94.5233 26.6539C94.6626 26.6539 94.8019 26.6694 94.9721 26.7003V24.859C93.595 24.859 92.5892 25.2923 92.0322 26.1588Z" fill="black"></path><path d="M99.724 24.859C98.3933 24.859 97.109 25.1994 96.2271 25.8802L96.9852 27.2883C97.6042 26.7777 98.5635 26.4682 99.4919 26.4682C100.869 26.4682 101.55 27.1336 101.55 28.2631V28.3869H99.4145C96.9079 28.3869 95.9795 29.47 95.9795 30.8471C95.9795 32.2861 97.1709 33.3228 99.0586 33.3228C100.296 33.3228 101.194 32.9205 101.658 32.2087V33.2145H103.484V28.3714C103.484 25.9886 102.107 24.859 99.724 24.859ZM99.4609 31.9147C98.4707 31.9147 97.8827 31.466 97.8827 30.7697C97.8827 30.1663 98.2386 29.6711 99.5538 29.6711H101.55V30.6305C101.225 31.4815 100.405 31.9147 99.4609 31.9147Z" fill="black"></path><path d="M209.684 18.6896C212.655 18.6896 214.063 17.2042 214.063 15.4712C214.063 11.4947 207.642 12.9956 207.642 10.6901C207.642 9.87 208.322 9.22014 209.993 9.22014C210.937 9.22014 212.005 9.49865 212.98 10.0712L213.614 8.50838C212.67 7.88946 211.309 7.54905 210.009 7.54905C207.038 7.54905 205.646 9.03446 205.646 10.7829C205.646 14.8059 212.082 13.2741 212.082 15.6105C212.082 16.4151 211.371 17.0185 209.684 17.0185C208.353 17.0185 206.976 16.5234 206.11 15.8271L205.413 17.3899C206.311 18.1635 207.997 18.6896 209.684 18.6896Z" fill="black"></path><path d="M219.028 10.1795C217.698 10.1795 216.413 10.5199 215.531 11.2007L216.29 12.6087C216.908 12.0981 217.868 11.7887 218.796 11.7887C220.173 11.7887 220.854 12.454 220.854 13.5835V13.7073H218.719C216.212 13.7073 215.284 14.7904 215.284 16.1675C215.284 17.6065 216.475 18.6432 218.363 18.6432C219.601 18.6432 220.498 18.2409 220.962 17.5292V18.5349H222.788V13.6918C222.788 11.309 221.411 10.1795 219.028 10.1795ZM218.765 17.2352C217.775 17.2352 217.187 16.7864 217.187 16.0902C217.187 15.4867 217.543 14.9916 218.858 14.9916H220.854V15.9509C220.529 16.8019 219.709 17.2352 218.765 17.2352Z" fill="black"></path><path d="M229.696 16.7091C229.402 16.9412 229.015 17.0495 228.613 17.0495C227.87 17.0495 227.468 16.6162 227.468 15.8116V11.8815H229.68V10.3342H227.468V8.44648H225.533V10.3342H224.172V11.8815H225.533V15.8581C225.533 17.6839 226.57 18.6432 228.38 18.6432C229.077 18.6432 229.773 18.4575 230.237 18.0862L229.696 16.7091Z" fill="black"></path><path d="M232.803 8.91068C233.53 8.91068 234.041 8.38459 234.041 7.70378C234.041 7.06938 233.515 6.58972 232.803 6.58972C232.091 6.58972 231.565 7.10033 231.565 7.7502C231.565 8.40007 232.091 8.91068 232.803 8.91068ZM231.828 18.5349H233.762V10.2723H231.828V18.5349Z" fill="black"></path><path d="M238.854 18.6432C241.175 18.6432 242.598 17.6375 242.598 16.0902C242.598 12.8563 237.492 14.3417 237.492 12.6706C237.492 12.1291 238.049 11.7422 239.225 11.7422C240.014 11.7422 240.804 11.897 241.593 12.3612L242.335 10.8912C241.593 10.4425 240.339 10.1795 239.241 10.1795C237.013 10.1795 235.605 11.2007 235.605 12.7635C235.605 16.0592 240.711 14.5738 240.711 16.1521C240.711 16.7246 240.2 17.065 238.978 17.065C237.941 17.065 236.827 16.7246 236.1 16.2449L235.357 17.7148C236.1 18.2409 237.477 18.6432 238.854 18.6432Z" fill="black"></path><path d="M247.622 8.50838C248.024 8.50838 248.395 8.64763 248.689 8.84878L249.231 7.39432C248.798 7.08486 248.148 6.9456 247.483 6.9456C245.564 6.9456 244.527 8.07513 244.527 9.80811V10.3342H243.166V11.8815H244.527V18.5349H246.461V11.8815H248.674V10.3342H246.399V9.83906C246.399 8.95709 246.817 8.50838 247.622 8.50838Z" fill="black"></path><path d="M252.981 10.1795C251.651 10.1795 250.366 10.5199 249.484 11.2007L250.243 12.6087C250.861 12.0981 251.821 11.7887 252.749 11.7887C254.126 11.7887 254.807 12.454 254.807 13.5835V13.7073H252.672C250.165 13.7073 249.237 14.7904 249.237 16.1675C249.237 17.6065 250.428 18.6432 252.316 18.6432C253.554 18.6432 254.451 18.2409 254.915 17.5292V18.5349H256.741V13.6918C256.741 11.309 255.364 10.1795 252.981 10.1795ZM252.718 17.2352C251.728 17.2352 251.14 16.7864 251.14 16.0902C251.14 15.4867 251.496 14.9916 252.811 14.9916H254.807V15.9509C254.482 16.8019 253.662 17.2352 252.718 17.2352Z" fill="black"></path><path d="M263.074 16.9876C261.651 16.9876 260.568 16.0128 260.568 14.4036C260.568 12.8099 261.651 11.8196 263.074 11.8196C263.894 11.8196 264.637 12.1755 265.132 12.9646L266.618 12.0981C265.983 10.8448 264.699 10.1795 263.09 10.1795C260.475 10.1795 258.618 11.9279 258.618 14.4036C258.618 16.5853 260.057 18.21 262.177 18.5658L261.79 20.0048H262.27C262.858 20.0048 263.09 20.2215 263.09 20.5154C263.09 20.8559 262.842 21.0725 262.27 21.0725C261.883 21.0725 261.543 20.9951 261.218 20.8249L260.862 21.7378C261.249 21.9544 261.728 22.0627 262.285 22.0627C263.554 22.0627 264.39 21.4902 264.39 20.5928C264.39 19.9275 263.956 19.4014 263.043 19.2931L263.214 18.6432C264.761 18.6123 265.999 17.916 266.618 16.7091L265.132 15.8426C264.637 16.6317 263.894 16.9876 263.074 16.9876Z" fill="black"></path><path d="M270.626 8.12155C271.183 8.12155 271.709 9.14277 272.73 9.14277C273.721 9.14277 274.371 8.3227 274.401 7.1158H273.365C273.334 7.67283 273.04 7.99777 272.607 7.99777C272.05 7.99777 271.524 6.97655 270.502 6.97655C269.512 6.97655 268.862 7.78114 268.831 9.04993H269.868C269.899 8.46196 270.193 8.12155 270.626 8.12155ZM271.446 10.1795C270.115 10.1795 268.831 10.5199 267.949 11.2007L268.707 12.6087C269.326 12.0981 270.286 11.7887 271.214 11.7887C272.591 11.7887 273.272 12.454 273.272 13.5835V13.7073H271.137C268.63 13.7073 267.702 14.7904 267.702 16.1675C267.702 17.6065 268.893 18.6432 270.781 18.6432C272.019 18.6432 272.916 18.2409 273.38 17.5292V18.5349H275.206V13.6918C275.206 11.309 273.829 10.1795 271.446 10.1795ZM271.183 17.2352C270.193 17.2352 269.605 16.7864 269.605 16.0902C269.605 15.4867 269.961 14.9916 271.276 14.9916H273.272V15.9509C272.947 16.8019 272.127 17.2352 271.183 17.2352Z" fill="black"></path><path d="M281.477 18.6432C284.046 18.6432 285.887 16.8793 285.887 14.4036C285.887 11.9279 284.046 10.1795 281.477 10.1795C278.94 10.1795 277.083 11.9279 277.083 14.4036C277.083 16.8793 278.94 18.6432 281.477 18.6432ZM281.477 16.9876C280.085 16.9876 279.033 15.9818 279.033 14.4036C279.033 12.8254 280.085 11.8196 281.477 11.8196C282.885 11.8196 283.938 12.8254 283.938 14.4036C283.938 15.9818 282.885 16.9876 281.477 16.9876Z" fill="black"></path><path d="M213.722 31.0482C213.026 31.4505 212.268 31.6052 211.494 31.6052C209.204 31.6052 207.58 29.996 207.58 27.7989C207.58 25.5553 209.204 23.9925 211.51 23.9925C212.67 23.9925 213.645 24.3793 214.496 25.2304L215.765 23.9925C214.744 22.832 213.227 22.2286 211.417 22.2286C208.028 22.2286 205.553 24.565 205.553 27.7989C205.553 31.0327 208.028 33.3692 211.386 33.3692C212.918 33.3692 214.496 32.905 215.626 31.9921V27.6751H213.722V31.0482Z" fill="black"></path><path d="M221.249 24.859C219.919 24.859 218.635 25.1994 217.753 25.8802L218.511 27.2883C219.13 26.7777 220.089 26.4682 221.017 26.4682C222.394 26.4682 223.075 27.1335 223.075 28.2631V28.3869H220.94C218.433 28.3869 217.505 29.47 217.505 30.8471C217.505 32.2861 218.696 33.3227 220.584 33.3227C221.822 33.3227 222.719 32.9204 223.184 32.2087V33.2144H225.009V28.3714C225.009 25.9885 223.632 24.859 221.249 24.859ZM220.986 31.9147C219.996 31.9147 219.408 31.466 219.408 30.7697C219.408 30.1662 219.764 29.6711 221.079 29.6711H223.075V30.6304C222.75 31.4815 221.93 31.9147 220.986 31.9147Z" fill="black"></path><path d="M229.333 26.1587V24.9518H227.492V33.2144H229.426V29.2069C229.426 27.5204 230.354 26.6539 231.824 26.6539C231.963 26.6539 232.103 26.6693 232.273 26.7003V24.859C230.896 24.859 229.89 25.2922 229.333 26.1587Z" fill="black"></path><path d="M237.025 24.859C235.694 24.859 234.41 25.1994 233.528 25.8802L234.286 27.2883C234.905 26.7777 235.864 26.4682 236.793 26.4682C238.17 26.4682 238.851 27.1335 238.851 28.2631V28.3869H236.715C234.209 28.3869 233.28 29.47 233.28 30.8471C233.28 32.2861 234.472 33.3227 236.359 33.3227C237.597 33.3227 238.495 32.9204 238.959 32.2087V33.2144H240.785V28.3714C240.785 25.9885 239.408 24.859 237.025 24.859ZM236.762 31.9147C235.771 31.9147 235.183 31.466 235.183 30.7697C235.183 30.1662 235.539 29.6711 236.854 29.6711H238.851V30.6304C238.526 31.4815 237.706 31.9147 236.762 31.9147Z" fill="black"></path><path d="M247.955 24.859C246.748 24.859 245.743 25.2613 245.108 26.0195V24.9518H243.267V33.2144H245.201V29.0367C245.201 27.3811 246.129 26.5456 247.506 26.5456C248.744 26.5456 249.472 27.2573 249.472 28.7273V33.2144H251.406V28.4797C251.406 25.9885 249.936 24.859 247.955 24.859Z" fill="black"></path><path d="M258.285 31.3886C257.991 31.6207 257.604 31.729 257.201 31.729C256.459 31.729 256.056 31.2958 256.056 30.4912V26.561H258.269V25.0137H256.056V23.126H254.122V25.0137H252.761V26.561H254.122V30.5376C254.122 32.3634 255.159 33.3227 256.969 33.3227C257.666 33.3227 258.362 33.1371 258.826 32.7657L258.285 31.3886Z" fill="black"></path><path d="M261.392 23.5902C262.119 23.5902 262.63 23.0641 262.63 22.3833C262.63 21.7489 262.104 21.2693 261.392 21.2693C260.68 21.2693 260.154 21.7799 260.154 22.4297C260.154 23.0796 260.68 23.5902 261.392 23.5902ZM260.417 33.2144H262.351V24.9518H260.417V33.2144Z" fill="black"></path><path d="M271.048 21.7334V25.9731C270.398 25.2149 269.454 24.859 268.387 24.859C265.988 24.859 264.209 26.5146 264.209 29.0831C264.209 31.6517 265.988 33.3227 268.387 33.3227C269.516 33.3227 270.476 32.9359 271.125 32.1468V33.2144H272.982V21.7334H271.048ZM268.619 31.6671C267.226 31.6671 266.159 30.6614 266.159 29.0831C266.159 27.5049 267.226 26.4991 268.619 26.4991C270.011 26.4991 271.079 27.5049 271.079 29.0831C271.079 30.6614 270.011 31.6671 268.619 31.6671Z" fill="black"></path><path d="M278.669 24.859C277.338 24.859 276.054 25.1994 275.172 25.8802L275.93 27.2883C276.549 26.7777 277.508 26.4682 278.437 26.4682C279.814 26.4682 280.495 27.1335 280.495 28.2631V28.3869H278.359C275.853 28.3869 274.924 29.47 274.924 30.8471C274.924 32.2861 276.116 33.3227 278.004 33.3227C279.241 33.3227 280.139 32.9204 280.603 32.2087V33.2144H282.429V28.3714C282.429 25.9885 281.052 24.859 278.669 24.859ZM278.406 31.9147C277.416 31.9147 276.828 31.466 276.828 30.7697C276.828 30.1662 277.183 29.6711 278.499 29.6711H280.495V30.6304C280.17 31.4815 279.35 31.9147 278.406 31.9147Z" fill="black"></path><path d="M373.889 7.70378H369.432V18.5349H371.444V15.4093H373.889C376.736 15.4093 378.5 13.9394 378.5 11.5566C378.5 9.15824 376.736 7.70378 373.889 7.70378ZM373.796 13.7073H371.444V9.40581H373.796C375.56 9.40581 376.473 10.1949 376.473 11.5566C376.473 12.9182 375.56 13.7073 373.796 13.7073Z" fill="black"></path><path d="M382.088 11.4792V10.2723H380.247V18.5349H382.181V14.5274C382.181 12.8408 383.11 11.9743 384.579 11.9743C384.719 11.9743 384.858 11.9898 385.028 12.0208V10.1795C383.651 10.1795 382.645 10.6127 382.088 11.4792Z" fill="black"></path><path d="M387.644 8.91068C388.371 8.91068 388.882 8.38459 388.882 7.70378C388.882 7.06938 388.355 6.58972 387.644 6.58972C386.932 6.58972 386.406 7.10033 386.406 7.7502C386.406 8.40007 386.932 8.91068 387.644 8.91068ZM386.669 18.5349H388.603V10.2723H386.669V18.5349Z" fill="black"></path><path d="M397.021 10.2723L394.375 16.3996L391.807 10.2723H389.795L393.339 18.5349H395.335L398.878 10.2723H397.021Z" fill="black"></path><path d="M402.987 10.1795C401.656 10.1795 400.372 10.5199 399.49 11.2007L400.248 12.6087C400.867 12.0981 401.826 11.7887 402.754 11.7887C404.132 11.7887 404.812 12.454 404.812 13.5835V13.7073H402.677C400.17 13.7073 399.242 14.7904 399.242 16.1675C399.242 17.6065 400.434 18.6432 402.321 18.6432C403.559 18.6432 404.456 18.2409 404.921 17.5292V18.5349H406.747V13.6918C406.747 11.309 405.369 10.1795 402.987 10.1795ZM402.724 17.2352C401.733 17.2352 401.145 16.7864 401.145 16.0902C401.145 15.4867 401.501 14.9916 402.816 14.9916H404.812V15.9509C404.487 16.8019 403.667 17.2352 402.724 17.2352Z" fill="black"></path><path d="M413.095 18.6432C414.704 18.6432 415.989 17.9469 416.623 16.7091L415.138 15.8426C414.642 16.6317 413.9 16.9876 413.08 16.9876C411.656 16.9876 410.573 16.0128 410.573 14.4036C410.573 12.8099 411.656 11.8196 413.08 11.8196C413.9 11.8196 414.642 12.1755 415.138 12.9646L416.623 12.0981C415.989 10.8448 414.704 10.1795 413.095 10.1795C410.48 10.1795 408.623 11.9279 408.623 14.4036C408.623 16.8793 410.48 18.6432 413.095 18.6432Z" fill="black"></path><path d="M419.27 8.91068C419.997 8.91068 420.508 8.38459 420.508 7.70378C420.508 7.06938 419.982 6.58972 419.27 6.58972C418.558 6.58972 418.032 7.10033 418.032 7.7502C418.032 8.40007 418.558 8.91068 419.27 8.91068ZM418.295 18.5349H420.229V10.2723H418.295V18.5349Z" fill="black"></path><path d="M428.926 7.05391V11.2935C428.276 10.5353 427.332 10.1795 426.265 10.1795C423.866 10.1795 422.087 11.8351 422.087 14.4036C422.087 16.9721 423.866 18.6432 426.265 18.6432C427.394 18.6432 428.353 18.2564 429.003 17.4673V18.5349H430.86V7.05391H428.926ZM426.497 16.9876C425.104 16.9876 424.036 15.9818 424.036 14.4036C424.036 12.8254 425.104 11.8196 426.497 11.8196C427.889 11.8196 428.957 12.8254 428.957 14.4036C428.957 15.9818 427.889 16.9876 426.497 16.9876Z" fill="black"></path><path d="M436.547 10.1795C435.216 10.1795 433.932 10.5199 433.05 11.2007L433.808 12.6087C434.427 12.0981 435.386 11.7887 436.315 11.7887C437.692 11.7887 438.373 12.454 438.373 13.5835V13.7073H436.237C433.731 13.7073 432.802 14.7904 432.802 16.1675C432.802 17.6065 433.994 18.6432 435.881 18.6432C437.119 18.6432 438.017 18.2409 438.481 17.5292V18.5349H440.307V13.6918C440.307 11.309 438.93 10.1795 436.547 10.1795ZM436.284 17.2352C435.293 17.2352 434.705 16.7864 434.705 16.0902C434.705 15.4867 435.061 14.9916 436.377 14.9916H438.373V15.9509C438.048 16.8019 437.228 17.2352 436.284 17.2352Z" fill="black"></path><path d="M449.023 7.05391V11.2935C448.373 10.5353 447.429 10.1795 446.361 10.1795C443.963 10.1795 442.184 11.8351 442.184 14.4036C442.184 16.9721 443.963 18.6432 446.361 18.6432C447.491 18.6432 448.45 18.2564 449.1 17.4673V18.5349H450.957V7.05391H449.023ZM446.593 16.9876C445.201 16.9876 444.133 15.9818 444.133 14.4036C444.133 12.8254 445.201 11.8196 446.593 11.8196C447.986 11.8196 449.054 12.8254 449.054 14.4036C449.054 15.9818 447.986 16.9876 446.593 16.9876Z" fill="black"></path><path d="M461.254 14.45C461.254 11.866 459.491 10.1795 457.077 10.1795C454.617 10.1795 452.806 11.9434 452.806 14.4036C452.806 16.8638 454.601 18.6432 457.371 18.6432C458.794 18.6432 459.955 18.179 460.697 17.2971L459.661 16.1056C459.073 16.7091 458.346 17.0031 457.417 17.0031C455.978 17.0031 454.972 16.2294 454.74 15.0225H461.224C461.239 14.8368 461.254 14.6048 461.254 14.45ZM457.077 11.7268C458.346 11.7268 459.258 12.5468 459.413 13.7383H454.725C454.911 12.5314 455.823 11.7268 457.077 11.7268Z" fill="black"></path><path d="M373.889 22.3833H369.432V33.2144H371.444V30.0889H373.889C376.736 30.0889 378.5 28.6189 378.5 26.2361C378.5 23.8378 376.736 22.3833 373.889 22.3833ZM373.796 28.3869H371.444V24.0854H373.796C375.56 24.0854 376.473 24.8745 376.473 26.2361C376.473 27.5977 375.56 28.3869 373.796 28.3869Z" fill="black"></path><path d="M382.088 26.1587V24.9518H380.247V33.2144H382.181V29.2069C382.181 27.5204 383.11 26.6539 384.579 26.6539C384.719 26.6539 384.858 26.6693 385.028 26.7003V24.859C383.651 24.859 382.645 25.2922 382.088 26.1587Z" fill="black"></path><path d="M390.307 33.3228C392.875 33.3228 394.717 31.5588 394.717 29.0831C394.717 26.6075 392.875 24.859 390.307 24.859C387.769 24.859 385.913 26.6075 385.913 29.0831C385.913 31.5588 387.769 33.3228 390.307 33.3228ZM390.307 31.6671C388.914 31.6671 387.862 30.6614 387.862 29.0831C387.862 27.5049 388.914 26.4991 390.307 26.4991C391.715 26.4991 392.767 27.5049 392.767 29.0831C392.767 30.6614 391.715 31.6671 390.307 31.6671Z" fill="black"></path><path d="M400.992 31.3886C400.698 31.6207 400.311 31.729 399.908 31.729C399.166 31.729 398.763 31.2958 398.763 30.4912V26.561H400.976V25.0137H398.763V23.126H396.829V25.0137H395.468V26.561H396.829V30.5376C396.829 32.3634 397.866 33.3228 399.676 33.3228C400.373 33.3228 401.069 33.1371 401.533 32.7657L400.992 31.3886Z" fill="black"></path><path d="M410.62 29.1296C410.62 26.5456 408.856 24.859 406.442 24.859C403.982 24.859 402.171 26.6229 402.171 29.0831C402.171 31.5434 403.966 33.3228 406.736 33.3228C408.159 33.3228 409.32 32.8586 410.063 31.9766L409.026 30.7852C408.438 31.3886 407.711 31.6826 406.782 31.6826C405.343 31.6826 404.338 30.909 404.105 29.7021H410.589C410.604 29.5164 410.62 29.2843 410.62 29.1296ZM406.442 26.4063C407.711 26.4063 408.624 27.2264 408.778 28.4178H404.09C404.276 27.2109 405.189 26.4063 406.442 26.4063Z" fill="black"></path><path d="M418.837 24.9518V26.0504C418.156 25.2304 417.135 24.859 415.974 24.859C413.607 24.859 411.797 26.4373 411.797 28.8356C411.797 31.2339 413.607 32.8431 415.974 32.8431C417.088 32.8431 418.063 32.4872 418.744 31.7445V32.1777C418.744 33.8488 417.939 34.6844 416.114 34.6844C414.969 34.6844 413.793 34.2976 413.065 33.6941L412.199 35.1486C413.143 35.9222 414.675 36.3245 416.222 36.3245C419.115 36.3245 420.678 34.9629 420.678 31.9611V24.9518H418.837ZM416.268 31.2029C414.798 31.2029 413.746 30.2436 413.746 28.8356C413.746 27.443 414.798 26.4991 416.268 26.4991C417.723 26.4991 418.775 27.443 418.775 28.8356C418.775 30.2436 417.723 31.2029 416.268 31.2029Z" fill="black"></path><path d="M424.196 23.5902C424.923 23.5902 425.434 23.0641 425.434 22.3833C425.434 21.7489 424.907 21.2693 424.196 21.2693C423.484 21.2693 422.958 21.7799 422.958 22.4297C422.958 23.0796 423.484 23.5902 424.196 23.5902ZM423.221 33.2144H425.155V24.9518H423.221V33.2144Z" fill="black"></path><path d="M433.852 21.7334V25.9731C433.202 25.2149 432.258 24.859 431.191 24.859C428.792 24.859 427.013 26.5146 427.013 29.0831C427.013 31.6517 428.792 33.3228 431.191 33.3228C432.32 33.3228 433.279 32.9359 433.929 32.1468V33.2144H435.786V21.7334H433.852ZM431.423 31.6671C430.03 31.6671 428.962 30.6614 428.962 29.0831C428.962 27.5049 430.03 26.4991 431.423 26.4991C432.815 26.4991 433.883 27.5049 433.883 29.0831C433.883 30.6614 432.815 31.6671 431.423 31.6671Z" fill="black"></path><path d="M441.473 24.859C440.142 24.859 438.858 25.1994 437.976 25.8802L438.734 27.2883C439.353 26.7777 440.312 26.4682 441.241 26.4682C442.618 26.4682 443.299 27.1335 443.299 28.2631V28.3869H441.163C438.657 28.3869 437.728 29.47 437.728 30.8471C437.728 32.2861 438.92 33.3228 440.807 33.3228C442.045 33.3228 442.943 32.9205 443.407 32.2087V33.2144H445.233V28.3714C445.233 25.9885 443.856 24.859 441.473 24.859ZM441.21 31.9147C440.219 31.9147 439.631 31.466 439.631 30.7697C439.631 30.1663 439.987 29.6711 441.302 29.6711H443.299V30.6304C442.974 31.4815 442.154 31.9147 441.21 31.9147Z" fill="black"></path><path d="M17.5913 0.593552L0.989395 5.88167V21.746C0.989395 30.5086 8.42132 37.6104 17.5913 37.6104C26.7612 37.6104 34.1931 30.5086 34.1931 21.746V5.88167L17.5913 0.593552ZM31.0803 21.746C31.0803 28.8643 25.0405 34.6358 17.5913 34.6358C10.142 34.6358 4.10224 28.8643 4.10224 21.746V8.11259L17.5913 3.56812L31.0803 8.11259V21.746Z" fill="black"></path><path d="M11.8153 17.5771C11.6711 17.4386 11.4996 17.3288 11.3108 17.2538C11.1219 17.1788 10.9195 17.1402 10.715 17.1402C10.5105 17.1402 10.3081 17.1788 10.1192 17.2538C9.93042 17.3288 9.75896 17.4386 9.6147 17.5771C9.46979 17.715 9.35479 17.8788 9.27633 18.0592C9.19786 18.2397 9.15747 18.4331 9.15747 18.6285C9.15747 18.8239 9.19786 19.0174 9.27633 19.1978C9.35479 19.3783 9.46979 19.5421 9.6147 19.68L15.2092 25.0259L15.3 25.1127C15.4364 25.2433 15.5985 25.347 15.7769 25.4177C15.9553 25.4884 16.1466 25.5248 16.3398 25.5248C16.5329 25.5248 16.7242 25.4884 16.9026 25.4177C17.081 25.347 17.2431 25.2433 17.3795 25.1127L27.0423 15.8791C27.179 15.7487 27.2875 15.5939 27.3615 15.4234C27.4355 15.2529 27.4736 15.0701 27.4736 14.8855C27.4736 14.701 27.4355 14.5182 27.3615 14.3477C27.2875 14.1772 27.179 14.0224 27.0423 13.892L26.9213 13.7763C26.7848 13.6456 26.6228 13.542 26.4443 13.4713C26.2659 13.4006 26.0747 13.3642 25.8815 13.3642C25.6883 13.3642 25.4971 13.4006 25.3187 13.4713C25.1402 13.542 24.9782 13.6456 24.8417 13.7763L16.3376 21.8985L11.8153 17.5771Z" fill="black"></path><path fill-rule="evenodd" clip-rule="evenodd" d="M158.917 16.87C156.732 16.5702 154.734 15.5277 153.288 13.9337C151.842 12.3397 151.046 10.3011 151.047 8.19174V7.02279C151.047 4.76437 152.965 2.93145 155.328 2.93145H158.646C159.203 1.56378 160.593 0.593552 162.223 0.593552H179.016C179.789 0.593963 180.544 0.817336 181.182 1.23446C181.821 1.65158 182.312 2.24303 182.593 2.93145H185.91C188.274 2.93145 190.192 4.76437 190.192 7.02279V8.19174C190.192 10.3011 189.396 12.3397 187.951 13.9337C186.505 15.5277 184.506 16.5702 182.321 16.87C181.805 18.4785 180.932 19.9618 179.762 21.2192C178.592 22.4766 177.153 23.4787 175.542 24.1573L175.894 27.5379C175.906 27.6548 175.968 27.8184 176.173 28.0148C176.383 28.2182 176.704 28.4123 177.086 28.5455C177.778 28.7863 178.598 29.1861 179.263 29.8735C179.96 30.5982 180.406 31.5638 180.406 32.7397V34.4931H183.464C183.951 34.4931 184.417 34.6779 184.761 35.0067C185.105 35.3355 185.299 35.7815 185.299 36.2466C185.299 36.7116 185.105 37.1576 184.761 37.4864C184.417 37.8153 183.951 38 183.464 38H157.775C157.288 38 156.821 37.8153 156.477 37.4864C156.133 37.1576 155.94 36.7116 155.94 36.2466C155.94 35.7815 156.133 35.3355 156.477 35.0067C156.821 34.6779 157.288 34.4931 157.775 34.4931H160.833V32.7397C160.833 31.5638 161.278 30.5982 161.978 29.8735C162.638 29.1861 163.461 28.7863 164.153 28.5455C164.493 28.433 164.804 28.252 165.065 28.0148C165.271 27.8161 165.332 27.6571 165.344 27.5379L165.697 24.1573C164.086 23.4784 162.647 22.4762 161.478 21.2188C160.308 19.9614 159.436 18.4782 158.92 16.87H158.917ZM158.386 6.43831H155.328C155.166 6.43831 155.01 6.49989 154.896 6.6095C154.781 6.71911 154.716 6.86777 154.716 7.02279V8.19174C154.716 10.4829 156.248 12.4304 158.386 13.1528V6.43831ZM169.291 25.0714L168.997 27.8862C168.77 30.0488 166.898 31.323 165.408 31.8396C165.134 31.921 164.882 32.0618 164.674 32.2511C164.584 32.3446 164.503 32.4685 164.503 32.7421V34.4955H176.736V32.7421C176.736 32.4685 176.655 32.3446 176.564 32.2511C176.356 32.0618 176.105 31.921 175.83 31.8396C174.341 31.323 172.469 30.0488 172.244 27.8886L171.95 25.0737C171.066 25.1651 170.175 25.1651 169.291 25.0737V25.0714ZM182.852 13.1551V6.43831H185.91C186.073 6.43831 186.228 6.49989 186.343 6.6095C186.458 6.71911 186.522 6.86777 186.522 7.02279V8.19174C186.522 9.27981 186.17 10.3412 185.512 11.2297C184.855 12.1182 183.926 12.7901 182.852 13.1528V13.1551ZM162.056 4.25938C162.056 4.17288 162.13 4.10041 162.223 4.10041H179.016C179.106 4.10041 179.182 4.17054 179.182 4.25938V13.452C179.182 15.6222 178.28 17.7035 176.674 19.238C175.068 20.7726 172.89 21.6347 170.619 21.6347C168.348 21.6347 166.17 20.7726 164.564 19.238C162.958 17.7035 162.056 15.6222 162.056 13.452V4.25938V4.25938Z" fill="black"></path><path d="M170.619 6.20438L171.938 10.0815L176.204 10.0815L172.752 12.4776L174.071 16.3547L170.619 13.9585L167.168 16.3547L168.486 12.4776L165.035 10.0815L169.301 10.0815L170.619 6.20438Z" fill="black"></path></svg>